<?xml version="1.0" standalone="no"?>
<!DOCTYPE svg PUBLIC "-//W3C//DTD SVG 20010904//EN"
 "http://www.w3.org/TR/2001/REC-SVG-20010904/DTD/svg10.dtd">
<svg version="1.0" xmlns="http://www.w3.org/2000/svg"
 width="225.000000pt" height="225.000000pt" viewBox="0 0 225.000000 225.000000"
 preserveAspectRatio="xMidYMid meet">

<g transform="translate(0.000000,225.000000) scale(0.100000,-0.100000)"
fill="#000000" stroke="none">
<path d="M1011 2226 c13 -11 99 -57 99 -53 0 6 -86 57 -96 57 -4 0 -5 -2 -3
-4z"/>
<path d="M1120 2166 c0 -3 9 -10 20 -16 11 -6 20 -8 20 -6 0 3 -9 10 -20 16
-11 6 -20 8 -20 6z"/>
<path d="M1198 2117 c7 -7 13 -65 15 -133 l3 -119 2 126 c2 110 0 128 -14 133
-13 5 -14 4 -6 -7z"/>
<path d="M1014 1865 c0 -71 1 -99 3 -62 2 37 2 96 0 130 -2 34 -3 4 -3 -68z"/>
<path d="M1450 1976 c0 -3 9 -10 20 -16 11 -6 20 -8 20 -6 0 3 -9 10 -20 16
-11 6 -20 8 -20 6z"/>
<path d="M1500 1946 c0 -3 9 -10 20 -16 11 -6 20 -8 20 -6 0 3 -9 10 -20 16
-11 6 -20 8 -20 6z"/>
<path d="M1570 1906 c0 -3 9 -10 20 -16 11 -6 20 -8 20 -6 0 3 -9 10 -20 16
-11 6 -20 8 -20 6z"/>
<path d="M1620 1876 c0 -2 7 -9 15 -16 9 -7 15 -8 15 -2 0 5 -7 12 -15 16 -8
3 -15 4 -15 2z"/>
<path d="M130 1245 c0 -340 -3 -493 -11 -508 -10 -19 -9 -20 2 -9 11 11 15
106 19 503 3 270 2 493 -2 496 -5 2 -8 -215 -8 -482z"/>
<path d="M1880 1726 c0 -3 9 -10 20 -16 11 -6 20 -8 20 -6 0 3 -9 10 -20 16
-11 6 -20 8 -20 6z"/>
<path d="M1930 1696 c0 -3 9 -10 20 -16 11 -6 20 -8 20 -6 0 3 -9 10 -20 16
-11 6 -20 8 -20 6z"/>
<path d="M2000 1656 c0 -3 9 -10 20 -16 11 -6 20 -8 20 -6 0 3 -9 10 -20 16
-11 6 -20 8 -20 6z"/>
<path d="M328 1189 c2 -407 3 -431 22 -462 11 -17 20 -27 20 -21 0 5 -7 19
-15 30 -12 16 -14 86 -15 446 0 235 -3 429 -7 431 -5 3 -7 -188 -5 -424z"/>
<path d="M1212 937 c-1 -524 1 -694 10 -710 7 -12 15 -44 19 -72 l6 -50 2 43
c0 24 -5 53 -11 65 -10 17 -14 187 -18 717 l-5 695 -3 -688z"/>
<path d="M2078 1189 c2 -407 3 -431 22 -462 11 -17 20 -27 20 -21 0 5 -7 19
-15 30 -12 16 -14 86 -15 446 0 235 -3 429 -7 431 -5 3 -7 -188 -5 -424z"/>
<path d="M1015 870 c0 -344 1 -484 2 -312 2 171 2 453 0 625 -1 171 -2 31 -2
-313z"/>
<path d="M1885 1120 c0 -206 1 -291 2 -188 2 104 2 272 0 375 -1 104 -2 19 -2
-187z"/>
<path d="M575 985 c0 -269 1 -378 2 -242 2 137 2 357 0 490 -1 133 -2 22 -2
-248z"/>
<path d="M680 1406 c0 -3 9 -10 20 -16 11 -6 20 -8 20 -6 0 3 -9 10 -20 16
-11 6 -20 8 -20 6z"/>
<path d="M758 1357 c8 -10 13 -141 15 -438 l2 -424 3 431 c2 393 1 432 -14
438 -13 5 -14 4 -6 -7z"/>
<path d="M102 690 c0 -14 2 -19 5 -12 2 6 2 18 0 25 -3 6 -5 1 -5 -13z"/>
<path d="M1851 694 c0 -11 3 -14 6 -6 3 7 2 16 -1 19 -3 4 -6 -2 -5 -13z"/>
<path d="M372 660 c0 -19 2 -27 5 -17 2 9 2 25 0 35 -3 9 -5 1 -5 -18z"/>
<path d="M2122 660 c0 -19 2 -27 5 -17 2 9 2 25 0 35 -3 9 -5 1 -5 -18z"/>
<path d="M102 630 c0 -14 2 -19 5 -12 2 6 2 18 0 25 -3 6 -5 1 -5 -13z"/>
<path d="M1850 621 c0 -11 4 -22 9 -25 4 -3 6 6 3 19 -5 30 -12 33 -12 6z"/>
<path d="M2105 600 c-3 -10 -20 -31 -36 -45 -17 -14 -26 -25 -21 -25 12 0 72
67 72 80 0 17 -8 11 -15 -10z"/>
<path d="M329 563 l-24 -28 28 24 c25 23 32 31 24 31 -2 0 -14 -12 -28 -27z"/>
<path d="M129 566 c13 -16 51 -41 51 -33 0 2 -15 14 -32 27 -21 15 -28 17 -19
6z"/>
<path d="M1879 566 c13 -16 51 -41 51 -33 0 2 -15 14 -32 27 -21 15 -28 17
-19 6z"/>
<path d="M198 523 c6 -2 18 -2 25 0 6 3 1 5 -13 5 -14 0 -19 -2 -12 -5z"/>
<path d="M248 523 c6 -2 18 -2 25 0 6 3 1 5 -13 5 -14 0 -19 -2 -12 -5z"/>
<path d="M1948 523 c6 -2 18 -2 25 0 6 3 1 5 -13 5 -14 0 -19 -2 -12 -5z"/>
<path d="M1998 523 c6 -2 18 -2 25 0 6 3 1 5 -13 5 -14 0 -19 -2 -12 -5z"/>
<path d="M1661 480 c14 -31 19 -36 19 -24 0 6 -7 19 -16 30 -14 18 -14 18 -3
-6z"/>
<path d="M788 475 c5 -11 12 -27 15 -35 5 -13 6 -13 6 1 1 8 -6 24 -15 35 -15
19 -15 19 -6 -1z"/>
<path d="M1413 405 c0 -27 2 -38 4 -22 2 15 2 37 0 50 -2 12 -4 0 -4 -28z"/>
<path d="M1683 405 c0 -22 2 -30 4 -17 2 12 2 30 0 40 -3 9 -5 -1 -4 -23z"/>
<path d="M531 404 c0 -11 3 -14 6 -6 3 7 2 16 -1 19 -3 4 -6 -2 -5 -13z"/>
<path d="M791 348 c-8 -18 -16 -37 -18 -43 -3 -5 5 5 17 22 12 18 20 37 18 43
-2 6 -10 -4 -17 -22z"/>
<path d="M1655 328 c-40 -64 -132 -73 -197 -21 l-33 27 24 -27 c35 -38 90 -53
140 -38 36 10 91 60 91 82 0 14 -3 11 -25 -23z"/>
<path d="M570 306 c0 -3 9 -10 20 -16 11 -6 20 -8 20 -6 0 3 -9 10 -20 16 -11
6 -20 8 -20 6z"/>
<path d="M730 285 c-14 -8 -20 -14 -14 -15 5 0 19 7 30 15 24 18 16 19 -16 0z"/>
<path d="M663 263 c9 -2 23 -2 30 0 6 3 -1 5 -18 5 -16 0 -22 -2 -12 -5z"/>
<path d="M990 225 c-6 -8 -10 -19 -8 -24 1 -6 8 1 15 14 13 28 11 31 -7 10z"/>
<path d="M972 150 c0 -19 2 -27 5 -17 2 9 2 25 0 35 -3 9 -5 1 -5 -18z"/>
<path d="M1226 83 c-6 -14 -5 -15 5 -6 7 7 10 15 7 18 -3 3 -9 -2 -12 -12z"/>
<path d="M1010 55 c13 -14 26 -25 28 -25 3 0 -5 11 -18 25 -13 14 -26 25 -28
25 -3 0 5 -11 18 -25z"/>
<path d="M1170 30 c-9 -6 -10 -10 -3 -10 6 0 15 5 18 10 8 12 4 12 -15 0z"/>
<path d="M1061 19 c13 -8 97 -13 88 -5 -2 2 -26 6 -53 9 -30 3 -43 1 -35 -4z"/>
</g>
</svg>
