<?xml version="1.0" standalone="no"?><!DOCTYPE svg PUBLIC "-//W3C//DTD SVG 1.1//EN" "http://www.w3.org/Graphics/SVG/1.1/DTD/svg11.dtd"><svg t="1704645449711" class="icon" viewBox="0 0 1024 1024" version="1.1" xmlns="http://www.w3.org/2000/svg" p-id="12360" width="128" height="128" xmlns:xlink="http://www.w3.org/1999/xlink"><path d="M368 408V832h-96V352z" fill="#fb6220" p-id="12361"></path><path d="M272 352l96 56 288-180.053333V112zM848 224l-96 64v112l96-64z" fill="#fb6220" opacity=".5" p-id="12362"></path><path d="M656 112V832h96V168zM848 224v496h96V280z" fill="#fb6220" p-id="12363"></path><path d="M80 240l96 56 288-180.053333V0z" fill="#fb6220" opacity=".5" p-id="12364"></path><path d="M464 115.925333V960h96V56L464 0zM176 296v432h-96V240z" fill="#fb6220" p-id="12365"></path><path d="M128 768a64 64 0 1 1 0-128 64 64 0 0 1 0 128zM896 768a64 64 0 1 1 0-128 64 64 0 0 1 0 128zM320 896a64 64 0 1 1 0-128 64 64 0 0 1 0 128zM706.197333 904.106667a67.498667 67.498667 0 1 1 0-134.997334 67.498667 67.498667 0 0 1 0 135.018667zM514.197333 1024a67.498667 67.498667 0 1 1 0-134.997333 67.498667 67.498667 0 0 1 0 134.997333z" fill="#fb6220" p-id="12366"></path></svg>